<?xml version="1.0" encoding="UTF-8"?>
<svg width="52px" height="52px" viewBox="0 0 52 52" version="1.1" xmlns="http://www.w3.org/2000/svg" xmlns:xlink="http://www.w3.org/1999/xlink">
    <!-- Generator: Sketch 46.2 (44496) - http://www.bohemiancoding.com/sketch -->
    <title>Facebook</title>
    <desc>Created with Sketch.</desc>
    <defs></defs>
    <g id="Page-1" stroke="none" stroke-width="1" fill="none" fill-rule="evenodd">
        <g id="iPhone-7-::-Open-menu" transform="translate(-107.000000, -359.000000)" fill-rule="nonzero" fill="#000000">
            <g id="Facebook" transform="translate(107.000000, 359.000000)">
                <g id="Facebook_w_x2F__circle">
                    <path d="M26,0.08 C11.6846,0.08 0.08,11.6846 0.08,26 C0.08,40.3154 11.6846,51.92 26,51.92 C40.3154,51.92 51.92,40.3154 51.92,26 C51.92,11.6846 40.3154,0.08 26,0.08 Z M32.1398,17.9918 L28.2437,17.9918 C27.782,17.9918 27.269,18.5993 27.269,19.4066 L27.269,22.22 L32.1425,22.22 L31.4054,26.2322 L27.269,26.2322 L27.269,38.2769 L22.6709,38.2769 L22.6709,26.2322 L18.4994,26.2322 L18.4994,22.22 L22.6709,22.22 L22.6709,19.8602 C22.6709,16.4744 25.0199,13.7231 28.2437,13.7231 L32.1398,13.7231 L32.1398,17.9918 L32.1398,17.9918 Z" id="Shape"></path>
                </g>
            </g>
        </g>
    </g>
</svg>