<?xml version="1.0" encoding="utf-8"?>
<!-- Generator: Adobe Illustrator 23.0.4, SVG Export Plug-In . SVG Version: 6.00 Build 0)  -->
<svg version="1.1" id="Layer_1" xmlns="http://www.w3.org/2000/svg" xmlns:xlink="http://www.w3.org/1999/xlink" x="0px" y="0px"
	 width="74px" height="74px" viewBox="0 0 74 74" style="enable-background:new 0 0 74 74;" xml:space="preserve">
<style type="text/css">
	.st0{filter:url(#Adobe_OpacityMaskFilter);}
	.st1{fill-rule:evenodd;clip-rule:evenodd;fill:#FFFFFF;}
	.st2{mask:url(#mask-2_1_);fill-rule:evenodd;clip-rule:evenodd;fill:#FFFFFF;}
</style>
<g id="v2">
	<g id="LANDING-PAGE" transform="translate(-1001.000000, -3531.000000)">
		<g id="icon_shamrock" transform="translate(1001.000000, 3531.000000)">
			<defs>
				<filter id="Adobe_OpacityMaskFilter" filterUnits="userSpaceOnUse" x="0" y="0.5" width="74" height="73">
					<feColorMatrix  type="matrix" values="1 0 0 0 0  0 1 0 0 0  0 0 1 0 0  0 0 0 1 0"/>
				</filter>
			</defs>
			<mask maskUnits="userSpaceOnUse" x="0" y="0.5" width="74" height="73" id="mask-2_1_">
				<g class="st0">
					<polygon id="path-1_1_" class="st1" points="0,0.5 74,0.5 74,73.5 0,73.5 					"/>
				</g>
			</mask>
			<path id="Fill-1" class="st2" d="M29.6,73.5h6.8c1.6-3.3,2.2-21.2,2.2-27c0-1.9-2.2-1.9-2.2,0.3C36.4,52.5,33.7,66.7,29.6,73.5
				 M45.3,31.1c7.6-3.8,14.3-9.9,22.6-7.1c5.2,1.7,7.3,6.5,5.3,12.4c-1.6,4.6-6.1,9.5-12.1,7.5c6,2,6.6,8.5,5.1,13.2
				c-2,5.9-6.6,8.4-11.8,6.7c-8.3-2.8-9.9-11.7-13.7-19.2c-2.5-5.5-4.1-3.7-6.2,0c-3.8,7.6-6.7,16.5-15,19.2
				c-5.2,1.7-9.8-0.8-11.8-6.7c-1.6-4.6-0.9-11.2,5.1-13.2c-6,2-10.5-2.8-12.1-7.5c-2-5.9,0.1-10.7,5.3-12.4
				c8.3-2.8,15,3.3,22.6,7.1c2.8,1.8,3.1-0.4,1.5-2.6c-6-6-14-10.4-14-19.1c0-5.4,3.8-9,10.1-9c4.9,0,11,2.7,11,9c0-6.3,6-9,11-9
				c6.3,0,10.1,3.5,10.1,9c0,8.7-7.9,13.1-14,19.1C42.2,30.2,41.8,32.3,45.3,31.1"/>
		</g>
	</g>
</g>
</svg>
