<?xml version="1.0" encoding="utf-8"?>
<!-- Generator: Adobe Illustrator 23.0.4, SVG Export Plug-In . SVG Version: 6.00 Build 0)  -->
<svg version="1.1" id="Layer_1" xmlns="http://www.w3.org/2000/svg" xmlns:xlink="http://www.w3.org/1999/xlink" x="0px" y="0px"
	 width="73px" height="73px" viewBox="0 0 73 73" style="enable-background:new 0 0 73 73;" xml:space="preserve">
<style type="text/css">
	.st0{fill:#FFFFFF;}
</style>
<g id="v2">
	<g id="LANDING-PAGE" transform="translate(-686.000000, -3534.000000)">
		<g id="Why-St-Pats" transform="translate(0.000000, 3033.000000)">
			<g id="icon_art" transform="translate(686.000000, 501.000000)">
				<path id="Shape" class="st0" d="M30.4,8C11.4,8,0,23.2,0,30.8s3.8,13.3,11.4,13.3s11.4,1.9,11.4,7.6c0,7.6,5.7,13.3,13.3,13.3
					c24.7,0,36.1-13.3,36.1-26.6C72.3,15.6,53.3,8,30.4,8z M25.7,15.6c1.3,0,2.5,0.5,3.4,1.4c0.9,0.9,1.4,2.1,1.4,3.4
					c0,2.6-2.1,4.8-4.8,4.8s-4.8-2.1-4.8-4.8c0-1.3,0.5-2.5,1.4-3.4C23.2,16.1,24.4,15.6,25.7,15.6z M40.9,15.6
					c1.3,0,2.5,0.5,3.4,1.4s1.4,2.1,1.4,3.4c0,1.3-0.5,2.5-1.4,3.4c-0.9,0.9-2.1,1.4-3.4,1.4c-1.3,0-2.5-0.5-3.4-1.4
					c-0.9-0.9-1.4-2.1-1.4-3.4C36.1,17.7,38.3,15.6,40.9,15.6z M56.1,23.2c1.3,0,2.5,0.5,3.4,1.4c0.9,0.9,1.4,2.1,1.4,3.4
					c0,1.3-0.5,2.5-1.4,3.4c-0.9,0.9-2.1,1.4-3.4,1.4c-1.3,0-2.5-0.5-3.4-1.4c-0.9-0.9-1.4-2.1-1.4-3.4c0-1.3,0.5-2.5,1.4-3.4
					C53.7,23.7,54.9,23.2,56.1,23.2z M12.4,27c1.3,0,2.5,0.5,3.4,1.4c0.9,0.9,1.4,2.1,1.4,3.4c0,2.6-2.1,4.8-4.8,4.8
					s-4.8-2.1-4.8-4.8C7.6,29.1,9.7,27,12.4,27z M36.1,46c3.2,0,5.7,2.5,5.7,5.7c0,3.1-2.6,5.7-5.7,5.7s-5.7-2.6-5.7-5.7
					c0-1.5,0.6-3,1.7-4C33.2,46.6,34.6,46,36.1,46z"/>
			</g>
		</g>
	</g>
</g>
</svg>
