<?xml version="1.0" encoding="utf-8"?>
<!-- Generator: Adobe Illustrator 23.0.4, SVG Export Plug-In . SVG Version: 6.00 Build 0)  -->
<svg version="1.1" id="Layer_1" xmlns="http://www.w3.org/2000/svg" xmlns:xlink="http://www.w3.org/1999/xlink" x="0px" y="0px"
	 width="45px" height="45px" viewBox="0 0 45 45" style="enable-background:new 0 0 45 45;" xml:space="preserve">
<style type="text/css">
	.st0{fill:#41C1CD;}
	.st1{fill:#FFFFFF;}
</style>
<title>icon_facebook</title>
<desc>Created with Sketch.</desc>
<g id="v2">
	<g id="MOBILE-LOOK-1" transform="translate(-258.000000, -626.000000)">
		<g id="icon_facebook" transform="translate(258.000000, 626.000000)">
			<circle id="Oval" class="st0" cx="22.5" cy="22.5" r="22.5"/>
		</g>
	</g>
</g>
<path id="Shape_1_" class="st1" d="M28.1,28.1h-5.5c-0.8,0-1.4-0.3-2-0.8c-0.5-0.5-0.8-1.2-0.8-2v-2h7.9c0.7,0,1.3-0.3,1.8-0.8
	s0.8-1.1,0.8-1.9c0-0.7-0.3-1.3-0.8-1.9c-0.5-0.5-1.1-0.8-1.8-0.8h-7.9v-4c0-0.8-0.3-1.4-0.8-2c-0.5-0.6-1.2-0.8-2-0.8
	c-0.8,0-1.4,0.3-2,0.8c-0.5,0.6-0.8,1.2-0.8,2v11.4c0,2.3,0.8,4.3,2.4,6c1.6,1.7,3.6,2.5,5.9,2.5h5.6c0.8,0,1.4-0.3,2-0.8
	c0.5-0.6,0.8-1.2,0.8-2s-0.3-1.4-0.8-2C29.5,28.4,28.9,28.1,28.1,28.1"/>
</svg>
