<?xml version="1.0" encoding="utf-8"?>
<!-- Generator: Adobe Illustrator 23.0.4, SVG Export Plug-In . SVG Version: 6.00 Build 0)  -->
<svg version="1.1" id="Layer_1" xmlns="http://www.w3.org/2000/svg" xmlns:xlink="http://www.w3.org/1999/xlink" x="0px" y="0px"
	 width="72px" height="72px" viewBox="0 0 72 72" style="enable-background:new 0 0 72 72;" xml:space="preserve">
<style type="text/css">
	.st0{fill:#FFFFFF;}
</style>
<g id="v2">
	<g id="LANDING-PAGE" transform="translate(-371.000000, -3526.000000)">
		<g id="Why-St-Pats" transform="translate(0.000000, 3033.000000)">
			<g id="icon_sports" transform="translate(370.000000, 492.000000)">
				<g id="Sports_club">
					<path id="Shape" class="st0" d="M22.2,50L37,59.2L51.8,50V18.5H22.2V50z M16.6,37c0-4.1-3.3-7.4-7.4-7.4S1.9,32.9,1.9,37
						s3.3,7.4,7.4,7.4S16.6,41.1,16.6,37z M64.8,29.6c-4.1,0-7.4,3.3-7.4,7.4s3.3,7.4,7.4,7.4s7.4-3.3,7.4-7.4S68.8,29.6,64.8,29.6z
						 M16.6,22.9c4.6-6.7,12.3-10.7,20.4-10.7c8,0,15.5,3.9,20.2,10.4c1.7,2.3,4.9,2.9,7.2,1.2c2.3-1.7,2.9-4.9,1.2-7.2
						C59,7.4,48.4,1.9,37,1.9C25.4,1.9,14.6,7.5,8.1,17c-1.6,2.4-1,5.6,1.3,7.2C11.7,25.9,15,25.3,16.6,22.9z M57.2,51.3
						C52.5,57.9,45,61.8,37,61.8c-8.2,0-15.8-4-20.4-10.7c-1.7-2.3-4.8-2.8-7.1-1.2c-2.3,1.6-2.9,4.7-1.4,7.1
						c6.6,9.5,17.4,15.2,28.9,15.2c11.4,0,22-5.5,28.6-14.8c1.5-2.3,0.9-5.5-1.3-7.1C62,48.7,58.9,49.1,57.2,51.3z"/>
				</g>
			</g>
		</g>
	</g>
</g>
</svg>
