<?xml version="1.0" encoding="UTF-8"?>
<svg width="72px" height="72px" viewBox="0 0 72 72" version="1.1" xmlns="http://www.w3.org/2000/svg" xmlns:xlink="http://www.w3.org/1999/xlink">
    <!-- Generator: Sketch 52.6 (67491) - http://www.bohemiancoding.com/sketch -->
    <title>icon_sports</title>
    <desc>Created with Sketch.</desc>
    <g id="v2" stroke="none" stroke-width="1" fill="none" fill-rule="evenodd">
        <g id="LANDING-PAGE" transform="translate(-371.000000, -3526.000000)" fill="#FFFFFF" fill-rule="nonzero">
            <g id="Why-St-Pats" transform="translate(0.000000, 3033.000000)">
                <g id="icon_sports" transform="translate(370.000000, 492.000000)">
                    <g id="Sports_club">
                        <path d="M22.2,49.95 L37,59.2 L51.8,49.95 L51.8,18.5 L22.2,18.5 L22.2,49.95 Z M16.65,37 C16.65,32.9130929 13.3369071,29.6 9.25,29.6 C5.16309285,29.6 1.85,32.9130929 1.85,37 C1.85,41.0869071 5.16309285,44.4 9.25,44.4 C13.3369071,44.4 16.65,41.0869071 16.65,37 Z M64.75,29.6 C60.6630929,29.6 57.35,32.9130929 57.35,37 C57.35,41.0869071 60.6630929,44.4 64.75,44.4 C68.8369071,44.4 72.15,41.0869071 72.15,37 C72.15,32.9130929 68.8369071,29.6 64.75,29.6 Z M16.5945,22.9363 C21.2234231,16.2282794 28.8498846,12.2193743 37,12.21 C45.0205487,12.229212 52.5385164,16.1190989 57.1872,22.6551 C58.8464843,24.9856587 62.0808912,25.5298342 64.4114499,23.8705499 C66.7420087,22.2112656 67.2861842,18.9768588 65.6269,16.6463 C59.0331405,7.38160915 48.3715312,1.87097511 37,1.85 C25.4486286,1.85849737 14.6377818,7.53844464 8.0771,17.0459 C6.45352251,19.3998053 7.04103082,22.6236537 9.3906,24.2535 C11.7443038,25.8759624 14.9672102,25.2866688 16.5945,22.9363 Z M57.1872,51.3449 C52.5393456,57.8818561 45.0208492,61.7720165 37,61.79 C28.8498846,61.7806257 21.2234231,57.7717206 16.5945,51.0637 C14.9349775,48.8041365 11.7789573,48.27492 9.47314409,49.8695571 C7.16733089,51.4641942 6.54863643,54.6038998 8.0771,56.9541 C14.6377818,66.4615554 25.4486286,72.1415026 37,72.15 C48.3715312,72.1290249 59.0331405,66.6183908 65.6269,57.3537 C67.1581985,55.0240767 66.5727195,51.9005387 64.301679,50.2836296 C62.0306385,48.6667204 58.887481,49.1355868 57.1872,51.3449 Z" id="Shape"></path>
                    </g>
                </g>
            </g>
        </g>
    </g>
</svg>