<?xml version="1.0" encoding="UTF-8"?>
<svg width="73px" height="57px" viewBox="0 0 73 57" version="1.1" xmlns="http://www.w3.org/2000/svg" xmlns:xlink="http://www.w3.org/1999/xlink">
    <!-- Generator: Sketch 52.6 (67491) - http://www.bohemiancoding.com/sketch -->
    <title>icon_art</title>
    <desc>Created with Sketch.</desc>
    <g id="v2" stroke="none" stroke-width="1" fill="none" fill-rule="evenodd">
        <g id="LANDING-PAGE" transform="translate(-686.000000, -3534.000000)" fill="#FFFFFF" fill-rule="nonzero">
            <g id="Why-St-Pats" transform="translate(0.000000, 3033.000000)">
                <g id="icon_art" transform="translate(686.000000, 501.000000)">
                    <path d="M30.4411473,0 C11.415242,0 0,15.1995 0,22.8 C0,30.4005 3.80457861,36.1005 11.415242,36.1005 C19.0259054,36.1005 22.8319901,37.9995 22.8319901,43.6995 C22.8319901,51.2985 28.538858,56.9985 36.1495214,56.9985 C60.8838009,56.9985 72.2975367,43.6995 72.2975367,30.4005 C72.2960305,7.6005 53.2671128,0 30.4411473,0 Z M25.684671,7.6005 C26.9477651,7.60209029 28.1584917,8.10332359 29.0505043,8.99393407 C29.9425169,9.88454455 30.4427462,11.0915779 30.4411473,12.3495 C30.4411473,14.9745 28.3114268,17.1 25.684671,17.1 C23.0579152,17.1 20.9281947,14.973 20.9281947,12.3495 C20.9265958,11.0915779 21.4268251,9.88454455 22.3188377,8.99393407 C23.2108503,8.10332359 24.4215769,7.60209029 25.684671,7.6005 Z M40.9029854,7.6005 C42.1660795,7.60209029 43.3768061,8.10332359 44.2688187,8.99393407 C45.1608313,9.88454455 45.6610606,11.0915779 45.6594618,12.3495 C45.6614605,13.6076818 45.1614078,14.8151006 44.2693519,15.7060356 C43.377296,16.5969707 42.1663409,17.0984099 40.9029854,17.1 C39.6398911,17.0980124 38.4293229,16.5963978 37.5375926,15.7055059 C36.6458624,14.814614 36.1460164,13.6074223 36.1480153,12.3495 C36.1446854,9.7305975 38.2733164,7.60463912 40.9029854,7.6005 Z M56.1243122,15.1995 C57.3879287,15.2006924 58.5992709,15.7019562 59.4916524,16.5929344 C60.384034,17.4839126 60.8842934,18.6915586 60.8822947,19.95 C60.8842935,21.2083033 60.3839861,22.4157951 59.4915613,23.3065351 C58.5991364,24.1972752 57.3877904,24.6982054 56.1243122,24.699 C54.8612331,24.6978081 53.6504285,24.1966544 52.7585685,23.3059142 C51.8667085,22.415174 51.3669432,21.2079054 51.369342,19.95 C51.3669432,18.6919564 51.8666606,17.4845336 52.7584773,16.5935552 C53.6502941,15.7025769 54.8610948,15.2010897 56.1243122,15.1995 Z M12.3671397,19.0005 C13.6299574,19.0016924 14.8405333,19.5026401 15.7323499,20.3930557 C16.6241666,21.2834713 17.1241086,22.4903542 17.1221099,23.748 C17.1221099,26.373 14.9923893,28.4985 12.3671397,28.4985 C9.74189011,28.4985 7.61066338,26.3715 7.61066338,23.748 C7.60816633,21.1290981 9.73747099,19.0038118 12.3671397,19.0005 Z M36.1480153,37.9995 C39.3004234,37.9995 41.8548832,40.5495 41.8548832,43.701 C41.8548832,46.848 39.3004234,49.3995 36.1480153,49.3995 C32.9956071,49.3995 30.4411473,46.848 30.4411473,43.701 C30.4383488,42.1911332 31.0381306,40.7420432 32.1084629,39.6727177 C33.1787951,38.6033922 34.6319393,38.0014872 36.1480153,37.9995 Z" id="Shape"></path>
                </g>
            </g>
        </g>
    </g>
</svg>