<?xml version="1.0" encoding="UTF-8"?>
<svg width="94px" height="94px" viewBox="0 0 94 94" version="1.1" xmlns="http://www.w3.org/2000/svg" xmlns:xlink="http://www.w3.org/1999/xlink">
    <!-- Generator: Sketch 52.6 (67491) - http://www.bohemiancoding.com/sketch -->
    <title>icon_basket</title>
    <desc>Created with Sketch.</desc>
    <defs>
        <polygon id="path-1" points="0.0017972973 0.0224307692 14.9507497 0.0224307692 14.9507497 8.91938769 0.0017972973 8.91938769"></polygon>
        <polygon id="path-3" points="0.01965 0.117375505 17.9445 0.117375505 17.9445 31.9663866 0.01965 31.9663866"></polygon>
        <polygon id="path-5" points="0.0752325 0.0201389078 20.9086763 0.0201389078 20.9086763 39 0.0752325 39"></polygon>
    </defs>
    <g id="v2" stroke="none" stroke-width="1" fill="none" fill-rule="evenodd">
        <g id="LANDING-PAGE" transform="translate(-369.000000, -2639.000000)">
            <g id="Group-5" transform="translate(369.000000, 2629.000000)">
                <g id="icon_basket" transform="translate(0.000000, 10.000000)">
                    <rect id="Rectangle" fill="#FAAF3A" fill-rule="nonzero" x="0" y="0" width="94" height="94"></rect>
                    <g id="Group-20" transform="translate(14.000000, 15.000000)">
                        <g id="Group-3" transform="translate(21.000000, 0.000000)">
                            <mask id="mask-2" fill="white">
                                <use xlink:href="#path-1"></use>
                            </mask>
                            <g id="Clip-2"></g>
                            <path d="M14.3509865,5.48983385 C15.0980135,4.47518769 14.9780135,2.32308 14.8716622,0.424633846 C14.867473,0.342803077 14.8631486,0.262772308 14.8586892,0.181495385 C13.8113919,0.0790338462 12.7512568,0.0224030769 11.6782838,0.0224030769 C7.5667973,0.0224030769 3.63274324,0.79848 0.0017972973,2.20538769 C2.59193243,3.48075692 6.60125676,5.67592615 11.0577432,8.91938769 C12.5782838,7.57866462 13.7249054,6.34095692 14.3509865,5.48983385" id="Fill-1" fill="#FFFFFF" mask="url(#mask-2)"></path>
                        </g>
                        <g id="Group-6" transform="translate(47.000000, 24.000000)">
                            <mask id="mask-4" fill="white">
                                <use xlink:href="#path-3"></use>
                            </mask>
                            <g id="Clip-5"></g>
                            <path d="M4.23274091,0.150184874 C2.58996818,0.333176471 1.20451364,0.598991597 0.01965,0.971831933 C5.68378636,10.7226891 7.89219545,23.0417479 8.43260455,31.9663866 C14.0439682,26.3290084 17.6075591,18.7078992 17.9445136,10.2664874 C14.0780591,5.5805042 8.95596818,-0.378084034 4.23274091,0.150184874" id="Fill-4" fill="#FFFFFF" mask="url(#mask-4)"></path>
                        </g>
                        <path d="M18.718401,15.288597 C22.5425856,14.5013611 26.1353667,12.5972432 29,10.5873482 C23.0238681,6.51544744 18.0393904,4.40223826 17.0478672,4 C10.8478007,7.31577583 5.88638471,12.5987988 3,19 C6.75172358,17.5211943 10.8149115,16.7688286 14.8057695,16.0357776 C16.096833,15.7985568 17.4313994,15.5534287 18.718401,15.288597" id="Fill-7" fill="#FFFFFF"></path>
                        <path d="M41,16.7009749 C41.3535279,17.0562764 41.7061059,17.4176852 42.056241,17.7858796 C43.3483483,19.1423498 44.5207582,20.6259849 45.5958631,22.1956632 C47.1615643,21.6044891 49.0047951,21.1852659 51.2111894,20.9358219 C56.409882,20.3477694 61.0324802,24.4660374 65,29 C64.1493616,22.12672 61.2015765,15.9059571 56.8092804,11 C54.4118046,11.288937 51.7389706,11.7784605 49.0147021,12.5913927 C47.2276557,13.1251593 44.3816541,14.5754085 41,16.7009749" id="Fill-9" fill="#FFFFFF"></path>
                        <path d="M37.1849802,32.8181061 C38.5057971,28.3463356 40.0358366,25.122884 43,23.0306759 C42.1102767,21.7540431 41.1529644,20.5561628 40.115942,19.4677194 C39.6362319,18.9642568 39.1511199,18.4777825 38.6640316,18 C26.7715415,26.0910915 10.4812912,40.954105 9,53.8318451 C13.944664,59.2395583 20.711726,62.9479039 28.3296443,64 C31.1034256,58.4800843 33.7140975,47.2586481 35.2660079,40.5849692 C36.0114625,37.3794278 36.6550725,34.6115025 37.1849802,32.8181061" id="Fill-11" fill="#FFFFFF"></path>
                        <path d="M23.349615,26.2476099 C27.5357729,22.4329833 31.9565641,19.0123019 36,16.2631032 C34.652188,15.0838981 33.3002527,13.9968986 31.9730577,13 C28.6146343,15.4965213 24.2175192,17.9554237 19.4312106,18.9398265 C18.0908473,19.215654 16.7182951,19.4678052 15.391366,19.7114068 C10.2786456,20.6502987 5.37076393,21.5595954 1.24339743,23.836849 C0.439605102,26.6347154 0,29.5845039 0,32.6371522 C0,39.4660191 2.15985103,45.7933457 5.83111893,51 C8.20950889,41.6876337 16.3674091,32.6100561 23.349615,26.2476099" id="Fill-13" fill="#FFFFFF"></path>
                        <path d="M39.1819921,14 C42.9979763,11.6184952 46.2877173,9.97181651 48.4223482,9.34811352 C50.3391329,8.78774433 52.2194349,8.37960749 54,8.0819515 C49.8854615,4.58189221 44.8559687,2.08733719 39.303776,1 C39.4268723,3.19291658 39.4805465,5.60050003 38.132918,7.34969465 C37.4926337,8.18035654 36.4094391,9.31959405 35,10.5555665 C36.3803054,11.6073186 37.7830516,12.7542641 39.1819921,14" id="Fill-15" fill="#FFFFFF"></path>
                        <g id="Group-19" transform="translate(32.000000, 26.000000)">
                            <mask id="mask-6" fill="white">
                                <use xlink:href="#path-5"></use>
                            </mask>
                            <g id="Clip-18"></g>
                            <path d="M8.574195,8.08901263 C8.073345,9.80980444 7.4415075,12.5646952 6.71057625,15.7543096 C4.55217,25.1722106 2.4870825,33.599272 0.0752325,38.9734188 C0.41766375,38.9844666 0.75996375,39.0000399 1.10502,39.0000399 C8.58141375,39.0000399 15.45432,36.3991526 20.9086763,32.0509853 C20.693295,22.8054563 18.50772,9.72794437 13.0024388,0.0201389078 C10.8672638,1.62952116 9.71803875,4.16132662 8.574195,8.08901263" id="Fill-17" fill="#FFFFFF" mask="url(#mask-6)"></path>
                        </g>
                    </g>
                </g>
            </g>
        </g>
    </g>
</svg>