<?xml version="1.0" encoding="UTF-8"?>
<svg width="25px" height="30px" viewBox="0 0 25 30" version="1.1" xmlns="http://www.w3.org/2000/svg" xmlns:xlink="http://www.w3.org/1999/xlink">
    <!-- Generator: Sketch 52.6 (67491) - http://www.bohemiancoding.com/sketch -->
    <title>Bus</title>
    <desc>Created with Sketch.</desc>
    <g id="v2" stroke="none" stroke-width="1" fill="none" fill-rule="evenodd">
        <g id="Desktop-HD-Copy-2" transform="translate(-873.000000, -1158.000000)" fill="#FFFFFF" fill-rule="nonzero">
            <g id="Group-3" transform="translate(240.000000, 145.000000)">
                <g id="Bus" transform="translate(633.000000, 1013.000000)">
                    <path d="M22.1202381,14.8809524 L3.06071429,14.8809524 C2.50535714,14.8809524 2.04821429,14.4035714 2.04821429,13.8607143 C2.04821429,13.7702381 2.06488095,13.6678571 2.08333333,13.5857143 L3.09761905,6.50297619 C3.18392857,6.04285714 3.59821429,5.95238095 4.09404762,5.95238095 L21.089881,5.95238095 C21.5821429,5.95238095 22,6.03511905 22.085119,6.49345238 L23.0994048,13.7053571 C23.114881,13.7892857 23.135119,13.8386905 23.135119,13.9291667 C23.1345238,14.4720238 22.675,14.8809524 22.1202381,14.8809524 Z M21.3577381,22.8244048 C20.2845238,22.8244048 19.4142857,21.9797619 19.4142857,20.9267857 C19.4142857,19.8809524 20.2845238,19.0375 21.3577381,19.0375 C22.4238095,19.0375 23.2958333,19.8809524 23.2958333,20.9267857 C23.2958333,21.9797619 22.4238095,22.8244048 21.3577381,22.8244048 Z M3.79761905,22.8244048 C2.73214286,22.8244048 1.86130952,21.9797619 1.86130952,20.9267857 C1.86130952,19.8809524 2.73214286,19.0375 3.79761905,19.0375 C4.87380952,19.0375 5.74285714,19.8809524 5.74285714,20.9267857 C5.74285714,21.9797619 4.87380952,22.8244048 3.79761905,22.8244048 Z M7.14285714,1.78571429 L19.047619,1.78571429 L19.047619,3.57142857 L7.14285714,3.57142857 C5.95238095,3.57142857 5.95238095,1.78571429 7.14285714,1.78571429 Z M23.9297619,4.51785714 C23.5821429,2.84345238 22.5666667,2.16904762 20.910119,1.4952381 C19.2565476,0.823809524 15.4244048,0.019047619 12.5422619,0.019047619 C9.64761905,0.019047619 5.79583333,0.824404762 4.14047619,1.4952381 C2.48452381,2.16964286 1.48571429,2.84345238 1.14107143,4.51785714 L0,13.8386905 L0,26.7857143 L1.78571429,26.7857143 L1.78571429,27.9761905 C1.78571429,30.3571429 4.76190476,30.3571429 4.76190476,27.9761905 L4.76190476,26.7857143 L19.6428571,26.7857143 L19.6428571,27.9761905 C19.6428571,30.3571429 23.2142857,30.3571429 23.2142857,27.9761905 L23.2142857,26.7857143 L25,26.7857143 L25,13.8386905 L23.9297619,4.51785714 Z" id="Shape"></path>
                </g>
            </g>
        </g>
    </g>
</svg>