<?xml version="1.0" encoding="UTF-8"?>
<svg width="74px" height="73px" viewBox="0 0 74 73" version="1.1" xmlns="http://www.w3.org/2000/svg" xmlns:xlink="http://www.w3.org/1999/xlink">
    <!-- Generator: Sketch 52.6 (67491) - http://www.bohemiancoding.com/sketch -->
    <title>icon_shamrock</title>
    <desc>Created with Sketch.</desc>
    <defs>
        <polygon id="path-1" points="0 0 74 0 74 73 0 73"></polygon>
    </defs>
    <g id="v2" stroke="none" stroke-width="1" fill="none" fill-rule="evenodd">
        <g id="LANDING-PAGE" transform="translate(-1001.000000, -3531.000000)">
            <g id="icon_shamrock" transform="translate(1001.000000, 3531.000000)">
                <mask id="mask-2" fill="white">
                    <use xlink:href="#path-1"></use>
                </mask>
                <g id="Clip-2"></g>
                <path d="M29.5561352,73 L36.4030186,73 C38.0461209,69.73151 38.5938217,51.7541944 38.5938217,46.0337164 C38.5938217,44.1270972 36.4030186,44.1270972 36.4030186,46.3060905 C36.4030186,52.0259481 33.663891,66.1900253 29.5561352,73 M45.29723,30.6082799 C52.9276125,26.8366112 59.611059,20.737043 67.9188937,23.5141427 C73.1108225,25.2495198 75.2641973,29.9921807 73.2574167,35.930434 C71.6872996,40.5781672 67.1721991,45.3909381 61.2011379,43.3949753 C67.1721991,45.3909381 67.8484037,51.9390862 66.2789104,56.5868194 C64.2721298,62.5250727 59.6759347,65.0118054 54.4840059,63.2764283 C46.176795,60.5005694 44.5530307,51.6239015 40.7609202,44.0346513 C38.2239054,38.494722 36.6531644,40.3132384 34.5347227,44.0346513 C30.7432361,51.6239015 27.823205,60.5005694 19.5159941,63.2764283 C14.3240653,65.0118054 9.72787021,62.5250727 7.7210896,56.5868194 C6.15097247,51.9390862 6.82780087,45.3909381 12.7982383,43.3949753 C6.82780087,45.3909381 2.31270045,40.5781672 0.742583319,35.930434 C-1.26419729,29.9921807 0.889177489,25.2495198 6.08110631,23.5141427 C14.3883172,20.737043 21.0717637,26.8366112 28.7021462,30.6082799 C31.5223685,32.4143875 31.7962189,30.2353941 30.1531166,28.0564008 C24.1284081,22.0635486 16.1861231,17.7049414 16.1861231,8.98896803 C16.1861231,3.5408642 20.0200285,0 26.3192112,0 C31.2485181,0 37.2738504,2.72374169 37.2738504,8.98896803 C37.2738504,2.72374169 43.2985589,0 48.2284896,0 C54.5276722,0 58.3609538,3.5408642 58.3609538,8.98896803 C58.3609538,17.7049414 50.4192927,22.0635486 44.3945842,28.0564008 C42.2031573,29.6900253 41.8188934,31.7989087 45.29723,30.6082799" id="Fill-1" fill="#FFFFFF" mask="url(#mask-2)"></path>
            </g>
        </g>
    </g>
</svg>