<?xml version="1.0" encoding="UTF-8"?>
<svg width="45px" height="45px" viewBox="0 0 45 45" version="1.1" xmlns="http://www.w3.org/2000/svg" xmlns:xlink="http://www.w3.org/1999/xlink">
    <!-- Generator: Sketch 52.6 (67491) - http://www.bohemiancoding.com/sketch -->
    <title>icon_mail</title>
    <desc>Created with Sketch.</desc>
    <g id="v2" stroke="none" stroke-width="1" fill="none" fill-rule="evenodd">
        <g id="MOBILE-LOOK-1" transform="translate(-65.000000, -626.000000)">
            <g id="icon_mail" transform="translate(65.000000, 626.000000)">
                <circle id="Oval" fill="#00A1E0" fill-rule="nonzero" cx="22.5" cy="22.5" r="22.5"></circle>
                <g id="Mail" transform="translate(9.000000, 14.000000)" fill="#FFFFFF">
                    <path d="M26.8333333,18 L1.16666667,18 C0.466666667,18 0,17.55 0,16.875 L0,1.125 C0,0.45 0.466666667,0 1.16666667,0 L26.8333333,0 C27.5333333,0 28,0.45 28,1.125 L28,16.875 C28,17.55 27.5333333,18 26.8333333,18 Z M2.33333333,15.75 L25.6666667,15.75 L25.6666667,2.25 L2.33333333,2.25 L2.33333333,15.75 Z" id="Shape" fill-rule="nonzero"></path>
                    <path d="M14.1145733,10 C13.7694151,10 13.3092042,9.77946244 13.1941515,9.4486561 C12.8489933,8.8973122 12.964046,8.23569952 13.5393097,7.90489318 L26.1951103,0.186078567 C26.7703739,-0.144727774 27.4606903,-0.0344589938 27.8058485,0.516884907 C28.1510067,1.06822881 28.035954,1.72984149 27.4606903,2.06064783 L14.8048897,9.77946244 C14.5747843,9.88973122 14.3446788,10 14.1145733,10 Z" id="Path"></path>
                    <path d="M13.8768116,10 C13.6449275,10 13.4130435,9.88850174 13.2971014,9.77700348 L0.543478261,1.97212544 C-0.0362318841,1.63763066 -0.152173913,0.968641115 0.195652174,0.522648084 C0.543478261,-0.0348432056 1.23913043,-0.146341463 1.70289855,0.18815331 L14.4565217,7.99303136 C15.0362319,8.32752613 15.1521739,8.99651568 14.8043478,9.55400697 C14.6884058,9.77700348 14.2246377,10 13.8768116,10 Z" id="Path"></path>
                </g>
            </g>
        </g>
    </g>
</svg>