<?xml version="1.0" encoding="UTF-8"?>
<svg width="94px" height="94px" viewBox="0 0 94 94" version="1.1" xmlns="http://www.w3.org/2000/svg" xmlns:xlink="http://www.w3.org/1999/xlink">
    <!-- Generator: Sketch 52.6 (67491) - http://www.bohemiancoding.com/sketch -->
    <title>icon_football</title>
    <desc>Created with Sketch.</desc>
    <defs>
        <polygon id="path-1" points="0 0 61 0 61 61 0 61"></polygon>
    </defs>
    <g id="v2" stroke="none" stroke-width="1" fill="none" fill-rule="evenodd">
        <g id="LANDING-PAGE" transform="translate(-813.000000, -2639.000000)">
            <g id="Group-10" transform="translate(813.000000, 2631.000000)">
                <g id="icon_football" transform="translate(0.000000, 8.000000)">
                    <rect id="Rectangle" fill="#FAAF3A" fill-rule="nonzero" x="0" y="0" width="94" height="94"></rect>
                    <g id="Group-3" transform="translate(17.000000, 19.000000)">
                        <mask id="mask-2" fill="white">
                            <use xlink:href="#path-1"></use>
                        </mask>
                        <g id="Clip-2"></g>
                        <path d="M47.2701375,42.9125469 C43.0327615,47.8810684 37.6229245,51.6647363 31.3746449,54.1210586 L20.3882594,43.1368887 L25.4439391,38.0822285 L27.9720173,40.6093203 L30.5000955,38.0822285 L27.9720173,35.5546602 L30.5000955,33.0275684 L33.0280545,35.5546602 L35.555656,33.0275684 L33.0275779,30.5 L35.555656,27.9725508 L38.0832576,30.5 L40.6113357,27.9725508 L38.0832576,25.445459 L43.1394139,20.3907988 L54.1314001,31.3805684 C52.4613075,35.6379395 50.1669112,39.5160859 47.2701375,42.9125469 Z M13.0777461,57.4257813 C10.9141926,57.4257813 8.69939834,57.3048535 6.45671951,57.0656191 L12.8049782,50.718998 L19.1780232,57.0907578 C17.1913101,57.3127168 15.1557394,57.4257813 13.0777461,57.4257813 Z M3.93007131,54.5375742 C3.46223087,50.1381875 3.46032424,45.881293 3.90957499,41.8258652 L10.2770192,48.1915488 L3.93007131,54.5375742 Z M17.8606579,45.6639805 L27.608446,55.4098027 C26.2869099,55.7987969 24.9341527,56.1325098 23.5531535,56.4103457 L15.3325798,48.1915488 L17.8606579,45.6639805 Z M12.8049782,45.664457 L4.58643024,37.4474473 C4.86241558,36.0651777 5.19428915,34.7113828 5.58205094,33.3878496 L15.3325798,43.1368887 L12.8049782,45.664457 Z M13.7285043,18.0898359 C17.9658803,13.1208379 23.3766707,9.3368125 29.6259036,6.88001367 L40.6113357,17.8632305 L35.555656,22.9178906 L33.0275779,20.3907988 L30.5000955,22.9178906 L33.0275779,25.445459 L30.5000955,27.9725508 L27.9720173,25.445459 L25.4444158,27.9725508 L27.9720173,30.5 L25.4439391,33.0275684 L22.9163376,30.5 L20.3882594,33.0275684 L22.9163376,35.5546602 L17.8606579,40.6093203 L6.86819507,29.6195508 C8.53840689,25.3630137 10.8323265,21.4858203 13.7285043,18.0898359 Z M54.5428757,3.9345 L48.1950936,10.2814785 L41.8225253,3.90983789 C43.8101918,3.68787891 45.8467157,3.57421875 47.9260198,3.57421875 C50.0854025,3.57421875 52.2997202,3.69526562 54.5428757,3.9345 Z M43.1394139,15.3361387 L33.3921025,5.59079297 C34.7136386,5.20215625 36.0662766,4.8685625 37.4473949,4.59072656 L45.6670154,12.8085703 L43.1394139,15.3361387 Z M48.1950936,15.3356621 L56.4136416,23.5526719 C56.1376563,24.9348223 55.8057827,26.2887363 55.4180209,27.6122695 L45.6670154,17.8632305 L48.1950936,15.3356621 Z M57.0900202,19.1742539 L50.7226951,12.8085703 L57.0700005,6.46254492 C57.5373643,10.8618125 57.5392709,15.1188262 57.0900202,19.1742539 Z M60.1287189,2.35958008 L59.923994,1.08203516 L58.6461914,0.877351563 C55.0092861,0.295111328 51.4027678,0 47.9260198,0 C40.2957877,0 33.2087081,1.3915625 26.8622369,4.13549023 C20.6275421,6.83104688 15.2934937,10.7455313 11.0077369,15.7708828 C1.77760013,26.5949277 -1.82248329,41.8193125 0.871352919,58.6405391 L1.0757203,59.9179648 L2.35388041,60.1227676 C5.98887907,60.7045313 9.59551655,60.9995234 13.0735754,61 C20.7057141,61 27.7918404,59.6090332 34.1368816,56.8659395 C40.3710998,54.1708594 45.7051481,50.2564941 49.9904283,45.2316191 C59.2219951,34.4074551 62.8225551,19.1816406 60.1287189,2.35958008 Z" id="Fill-1" fill="#FFFFFF" mask="url(#mask-2)"></path>
                    </g>
                </g>
            </g>
        </g>
    </g>
</svg>