<?xml version="1.0" encoding="UTF-8"?>
<svg width="94px" height="94px" viewBox="0 0 94 94" version="1.1" xmlns="http://www.w3.org/2000/svg" xmlns:xlink="http://www.w3.org/1999/xlink">
    <!-- Generator: Sketch 52.6 (67491) - http://www.bohemiancoding.com/sketch -->
    <title>icon_rugby</title>
    <desc>Created with Sketch.</desc>
    <defs>
        <polygon id="path-1" points="0 0 65 0 65 65 0 65"></polygon>
    </defs>
    <g id="v2" stroke="none" stroke-width="1" fill="none" fill-rule="evenodd">
        <g id="LANDING-PAGE" transform="translate(-369.000000, -2769.000000)">
            <g id="Group-2" transform="translate(369.000000, 2761.000000)">
                <g id="icon_rugby" transform="translate(0.000000, 8.000000)">
                    <rect id="Rectangle" fill="#FAAF3A" fill-rule="nonzero" x="0" y="0" width="94" height="94"></rect>
                    <g id="Group-3" transform="translate(14.000000, 15.000000)">
                        <mask id="mask-2" fill="white">
                            <use xlink:href="#path-1"></use>
                        </mask>
                        <g id="Clip-2"></g>
                        <path d="M3.65227047,41.0474979 C5.7867736,33.2221116 10.8598768,25.015295 17.9376441,17.9369237 C25.0152496,10.8593609 33.2219541,5.78693509 41.0475494,3.65244485 C46.1997202,2.24686015 50.7418252,2.23990742 54.31426,3.57159908 C52.0062608,4.13832798 49.2165795,5.37672361 46.0179778,7.2555795 C45.2036942,7.73337805 44.3737265,8.24642536 43.527266,8.79488312 L41.8687857,7.1368979 C41.3636583,6.63193517 40.5451707,6.63193517 40.0402049,7.1368979 C39.5354008,7.64169894 39.5354008,8.45985821 40.0402049,8.96465925 L41.3410213,10.2654678 C40.4675582,10.8726196 39.5827767,11.5113013 38.686515,12.1810277 L37.1837446,10.6782664 C36.6774853,10.1834902 35.8670823,10.1878559 35.3659971,10.6882912 C34.8655587,11.1893734 34.861193,11.9999332 35.3558105,12.5060277 L36.617659,13.7683537 C35.7805768,14.4259533 34.9386438,15.1069981 34.0910515,15.8113265 L32.499997,14.2201199 C31.9943844,13.7209781 31.1802625,13.7229184 30.6772371,14.2259408 C30.1748584,14.7283165 30.1722713,15.5424335 30.6722246,16.048043 L32.1137135,17.4895232 C31.3474526,18.1534287 30.5807066,18.83318 29.8120203,19.5299089 L28.3868623,18.1049212 C27.8812498,17.604971 27.0671279,17.607558 26.5647492,18.1099337 C26.0617237,18.6129561 26.0591366,19.4270731 26.5589282,19.9326826 L27.9103544,21.2839389 C27.1314815,22.0154315 26.3545489,22.7621232 25.5787481,23.5232053 L24.1594111,22.1030684 C23.6537985,21.6039265 22.8396766,21.6065136 22.3372979,22.1088893 C21.8349192,22.61175 21.8323321,23.4260287 22.3316387,23.9316382 L23.7491971,25.3485413 C23.0251379,26.083106 22.3144992,26.8189643 21.6158258,27.5580564 L20.2753947,26.2169866 C19.7691354,25.7170363 18.9556603,25.7196234 18.4526348,26.2226458 C17.9502561,26.7250215 17.947669,27.5391385 18.4474606,28.044748 L19.8556409,29.4534048 C19.120425,30.2594372 18.4026718,31.065308 17.7022197,31.8700468 L16.276415,30.4442507 C15.9507662,30.1142382 15.4729648,29.9842382 15.0247531,30.1034049 C14.5767031,30.2220865 14.2271238,30.5724721 14.1077947,31.0205194 C13.9884656,31.4685667 14.1184664,31.9457185 14.4486426,32.2721737 L16.0194856,33.8423604 C15.3138593,34.6868754 14.630385,35.5268631 13.9689008,36.3631318 L12.7343784,35.1287785 C12.2282807,34.6331938 11.4178778,34.6382063 10.9167926,35.1388033 C10.4161925,35.6398855 10.4118268,36.4501219 10.906606,36.9563781 L12.3771996,38.4269628 C11.7402927,39.2726097 11.1307118,40.1101719 10.5474869,40.9381944 L9.42226851,39.8136296 C9.09710483,39.4810301 8.61800985,39.348443 8.16801954,39.4671246 C7.71802922,39.586453 7.36715642,39.9373237 7.24782733,40.3873113 C7.12914501,40.8372989 7.26173289,41.3157442 7.59433443,41.641391 L9.0675151,43.1144011 C8.41864296,44.1028215 7.81472135,45.0710306 7.25672042,46.0196749 C5.37769149,49.2182573 4.14009684,52.0079217 3.57271775,54.3160687 C2.24037127,50.7418769 2.24732405,46.199476 3.65227047,41.0474979 M61.3470767,23.9529815 C59.2132204,31.7778827 54.1401171,39.9853461 47.0625116,47.0629089 C39.9847443,54.1406334 31.7772314,59.2130592 23.9524446,61.3475494 C16.380545,63.4125123 10.121427,62.4614426 6.3302222,58.6700989 C5.31091248,57.6509571 5.52547847,54.0685189 9.4853286,47.328083 C9.93531892,46.5605332 10.4187796,45.7785928 10.9344171,44.9814535 L12.0489637,46.0959934 C12.3752592,46.4261675 12.8524139,46.5560058 13.3004639,46.4368392 C13.7486756,46.3175108 14.0989016,45.9679336 14.2182307,45.5197247 C14.3369131,45.0716774 14.2069123,44.5938788 13.8773829,44.268232 L12.4030704,42.7939284 C12.9799893,41.9639656 13.586498,41.1233312 14.2221114,40.2718635 L15.3625288,41.4116273 C15.6881776,41.7418014 16.165979,41.8718014 16.614029,41.7524731 C17.0622407,41.6337915 17.4124667,41.2835676 17.531149,40.8353586 C17.6504781,40.3873113 17.5204773,39.9101595 17.1903012,39.5838659 L15.809447,38.2028583 C16.4664037,37.3665896 17.1479377,36.5246617 17.8542107,35.6770745 L19.0187203,36.8422239 C19.3443691,37.1715896 19.8215238,37.3015896 20.2695738,37.1830697 C20.7177855,37.0637413 21.0680115,36.7133557 21.1873406,36.2659552 C21.3060229,35.8177462 21.1760221,35.3401093 20.8464927,35.0143008 L19.5343578,33.7015271 C20.2323845,32.8969499 20.9494909,32.0909175 21.6860004,31.2831065 L22.9020899,32.4999971 C23.4083492,32.9999474 24.2224711,32.9973604 24.7248498,32.494823 C25.2273902,31.9919623 25.2298156,31.1776836 24.7305091,30.6722358 L23.4448917,29.3864645 C24.1424333,28.648666 24.853072,27.9115142 25.5763227,27.1763026 L26.7869147,28.3867256 C27.2923656,28.8866759 28.1066492,28.8840889 28.6096746,28.3817132 C29.1120533,27.8786908 29.1144787,27.0645738 28.6146871,26.5589643 L27.4066822,25.3509667 C28.1823213,24.5905313 28.9592539,23.8444864 29.7381268,23.1123471 L31.0148511,24.3892253 C31.5211104,24.8840014 32.3315134,24.8794741 32.8325985,24.3790387 C33.3330369,23.8779566 33.3375643,23.0675585 32.8426235,22.5613022 L31.641733,21.3602574 C32.4109044,20.6641752 33.1791056,19.9850707 33.9460133,19.3229437 L35.2416556,20.6187399 C35.7466214,21.1235409 36.5652706,21.1235409 37.0700747,20.6187399 C37.5743937,20.1137771 37.5743937,19.2957796 37.0700747,18.7909785 L35.9265851,17.6473341 C36.7754709,16.9441376 37.6191826,16.264548 38.4580434,15.608727 L39.811895,16.9624087 C40.3179926,17.4579933 41.1288807,17.4536277 41.6294808,16.9523838 C42.1307276,16.4519485 42.1350933,15.6415504 41.6396674,15.1346474 L40.5332054,14.027707 C41.433186,13.3599208 42.3218482,12.7256049 43.1991919,12.1236272 L44.4962894,13.4212019 C45.0010935,13.9261647 45.8195811,13.9255179 46.3245469,13.4205552 C46.8295126,12.9155924 46.8288659,12.0971098 46.3239001,11.5927938 L45.3986954,10.6667863 C46.0512865,10.2515623 46.6936909,9.85784341 47.327364,9.48530606 C54.068164,5.52564154 57.650462,5.31091515 58.6697718,6.33038041 C62.461785,10.1222091 63.4122138,16.3806425 61.3470767,23.9529815 M16.6090165,65 C19.0995666,65 21.7901304,64.6163059 24.6320383,63.8411566 C32.8843401,61.5905718 41.49948,56.2814296 48.8901223,48.8900235 C56.2809263,41.4994258 61.5907474,32.884338 63.8413457,24.6327328 C66.1608251,16.1274335 64.9736785,8.97856473 60.4970591,4.50245737 C56.0202779,0.0271584653 48.871851,-1.1607894 40.3665004,1.15802921 C32.1156538,3.40942244 23.500514,8.71921147 16.10971,16.1098091 C8.71906769,23.5005685 3.4092466,32.1154946 1.15864823,40.3677466 C-1.16083116,48.8723991 0.0263154195,56.0212679 4.50309658,60.4973752 C7.48260489,63.477674 11.6476428,65 16.6090165,65" id="Fill-1" fill="#FFFFFF" mask="url(#mask-2)"></path>
                    </g>
                </g>
            </g>
        </g>
    </g>
</svg>