<?xml version="1.0" encoding="UTF-8"?>
<svg width="57px" height="50px" viewBox="0 0 57 50" version="1.1" xmlns="http://www.w3.org/2000/svg" xmlns:xlink="http://www.w3.org/1999/xlink">
    <!-- Generator: Sketch 46.2 (44496) - http://www.bohemiancoding.com/sketch -->
    <title>Phone</title>
    <desc>Created with Sketch.</desc>
    <defs></defs>
    <g id="Page-1" stroke="none" stroke-width="1" fill="none" fill-rule="evenodd">
        <g id="iPhone-7" transform="translate(-159.000000, -606.000000)" fill-rule="nonzero" fill="#444444">
            <g id="Phone" transform="translate(159.000000, 606.000000)">
                <g id="Group">
                    <path d="M56.5136478,10.1654719 L54.3450786,5.50925926 C53.8000812,4.35063196 52.768591,3.4938232 51.5294937,3.17048984 C44.6398428,1.29378734 36.7370079,0.145728793 28.5888758,0.00355436081 C20.5582925,0.128203563 12.5737858,1.24322113 4.8163805,3.32332736 C4.22980031,3.49393668 3.20595126,4.354092 2.66558648,5.48793309 L0.486352201,10.1690263 C0.206616449,10.7450862 0.060778951,11.3769295 0.0597484277,12.0172939 L0.0597484277,15.1095878 L0.0561933962,15.2553166 C0.0561933962,16.648626 1.1866934,17.7789128 2.58026572,17.7789128 L2.69758176,17.7753584 L11.6491509,17.7753584 C13.1162787,17.7406075 14.2873959,16.5413067 14.2869843,15.0740442 L14.2798742,14.8856631 L14.2798742,11.9071087 L14.2798742,11.8644564 C14.2804049,11.0796494 14.6793804,10.3487785 15.3392736,9.92377539 C19.4020825,7.76622104 23.9890202,6.79211169 28.5782107,7.11227599 C33.1573965,6.80341563 37.7323302,7.7731137 41.7922626,9.91311231 C42.3006321,10.264994 42.7236808,10.9794205 42.7236808,11.7933692 L42.7236808,14.8927718 C42.6750448,15.6266711 42.9278248,16.3486671 43.4236423,16.8920182 C43.9194599,17.4353694 44.6154399,17.75309 45.3508491,17.7718041 L54.3130833,17.7718041 L54.4232893,17.7753584 C55.817296,17.7753584 56.9473616,16.6455059 56.9473616,15.2517622 L56.9438066,15.0989247 L56.9438066,12.0137395 C56.9416087,11.3643293 56.7921013,10.7238775 56.5065377,10.1405914 L56.5136478,10.1654719 Z" id="Shape"></path>
                    <path d="M42.7201258,25.9468339 C40.4064595,22.9824715 39.1535117,19.3282084 39.1615393,15.5681004 L39.1650943,15.2695341 L39.1650943,14.2174432 L35.6100629,14.2174432 L35.6100629,17.7718041 L21.3899371,17.7718041 L21.3899371,14.2174432 L17.8349057,14.2174432 L17.8349057,15.3903823 L17.8384607,15.6747312 C17.8435815,19.4499223 16.5803653,23.1174399 14.251434,26.0890084 L3.61477987,39.0979689 L3.61477987,49.7610514 L53.3852201,49.7610514 L53.3852201,39.0979689 L42.7201258,25.9468339 Z M28.5,42.6523297 C22.609831,42.6523297 17.8349057,37.8783051 17.8349057,31.9892473 C17.8349057,26.1001895 22.609831,21.3261649 28.5,21.3261649 C34.3901689,21.326165 39.1650941,26.1001896 39.1650941,31.9892473 C39.1650941,37.878305 34.3901689,42.6523296 28.5,42.6523297 Z" id="Shape"></path>
                    <path d="M35.6100629,31.9892473 C35.6683479,34.5661862 34.3268661,36.972775 32.1041759,38.2787312 C29.8814856,39.5846875 27.1258681,39.5853765 24.9025248,38.2805318 C22.6791816,36.9756871 21.3364962,34.5697694 21.3934921,31.9928017 C21.4789355,28.1296383 24.6352026,25.0422053 28.5000393,25.0412391 C32.364876,25.0402728 35.5226871,28.1261272 35.6100629,31.9892473 Z" id="Shape"></path>
                </g>
            </g>
        </g>
    </g>
</svg>