<?xml version="1.0" encoding="utf-8"?>
<!-- Generator: Adobe Illustrator 23.0.1, SVG Export Plug-In . SVG Version: 6.00 Build 0)  -->
<svg version="1.1" id="Layer_1" xmlns="http://www.w3.org/2000/svg" xmlns:xlink="http://www.w3.org/1999/xlink" x="0px" y="0px"
	 viewBox="0 0 33 33" style="enable-background:new 0 0 33 33;" xml:space="preserve">
<style type="text/css">
	.st0{fill:#FFFFFF;}
	.st1{fill:none;stroke:#41C1CD;stroke-opacity:0;}
</style>
<g id="Welcome">
	<g id="LANDING-PAGE" transform="translate(-1398.000000, -93.000000)">
		<g id="main-navigation">
			<g id="Twitter" transform="translate(1398.000000, 93.000000)">
				<g>
					<path id="Shape" class="st0" d="M23,22h-5.5c-0.8,0-1.4-0.3-2-0.8c-0.5-0.5-0.8-1.2-0.8-2v-2h7.9c0.7,0,1.3-0.3,1.8-0.8
						s0.8-1.1,0.8-1.9c0-0.7-0.3-1.3-0.8-1.9c-0.5-0.5-1.1-0.8-1.8-0.8h-7.9v-4c0-0.8-0.3-1.4-0.8-2S12.7,5,11.9,5s-1.4,0.3-2,0.8
						C9.4,6.4,9.1,7,9.1,7.8v11.4c0,2.3,0.8,4.3,2.4,6s3.6,2.5,5.9,2.5H23c0.8,0,1.4-0.3,2-0.8c0.5-0.6,0.8-1.2,0.8-2
						s-0.3-1.4-0.8-2C24.4,22.3,23.8,22,23,22"/>
					<rect id="Rectangle" x="0.5" y="0.5" class="st1" width="32" height="32"/>
				</g>
			</g>
		</g>
	</g>
</g>
</svg>
