<?xml version="1.0" encoding="UTF-8"?>
<svg width="41px" height="41px" viewBox="0 0 41 41" version="1.1" xmlns="http://www.w3.org/2000/svg" xmlns:xlink="http://www.w3.org/1999/xlink">
    <title>bacteria</title>
    <g id="v2" stroke="none" stroke-width="1" fill="none" fill-rule="evenodd">
        <g id="ALERT-TAG-DESKTOP" transform="translate(-721.000000, -715.000000)" fill="#FFDFCF" fill-rule="nonzero">
            <g id="Group" transform="translate(660.000000, 701.000000)">
                <g id="bacteria" transform="translate(61.200000, 14.400000)">
                    <path d="M12.0735367,20.4456971 C11.6841627,20.4456971 11.3685126,20.7613472 11.3685126,21.1507212 C11.3685126,21.5400951 11.6841627,21.8557452 12.0735367,21.8557452 C12.4629106,21.8557452 12.7785607,21.5400951 12.7785607,21.1507212 C12.7785607,20.7613472 12.4629106,20.4456971 12.0735367,20.4456971 Z" id="Shape"></path>
                    <path d="M29.6652965,34.374857 C29.1753839,34.1347837 28.7721077,33.7485057 28.5111721,33.2693793 C28.126229,32.5135936 27.5946409,31.410231 27.069398,30.1538781 C26.4873618,30.5605576 25.8720424,30.917391 25.2299902,31.2205795 C26.1415863,32.4113651 26.8593008,33.4914619 27.2378987,34.0836821 C27.5074113,34.5165406 27.6289054,35.0252816 27.5840655,35.5332115 C27.5491329,36.1345886 27.9000918,36.6917405 28.4575867,36.919938 C29.0150815,37.1481354 29.655972,36.9969739 30.0527347,36.5437037 C30.4494973,36.0904333 30.5144947,35.4351733 30.2145102,34.9127904 C30.0863809,34.6848525 29.895844,34.498229 29.6652965,34.374857 L29.6652965,34.374857 Z" id="Shape"></path>
                    <path d="M11.1118839,33.3286014 C10.8721024,33.7773724 10.4930571,34.1361294 10.031787,34.3508862 C9.49394782,34.6215816 9.18733971,35.2039303 9.26853563,35.8005492 C9.34973163,36.3971682 9.80081384,36.8764002 10.3914321,36.9935199 C10.9820504,37.1106397 11.5818716,36.839802 11.8845902,36.3193133 C12.0165723,36.0942073 12.0820837,35.8363174 12.0735367,35.575513 C12.0365315,35.0315255 12.1695765,34.4894901 12.4542496,34.0244601 C12.9167454,33.3116808 13.6062589,32.2971512 14.4283169,31.2184644 C13.7856238,30.9158765 13.1693952,30.5600062 12.5860891,30.1545831 C12.0495658,31.4553525 11.5045823,32.5721106 11.1118839,33.3286014 L11.1118839,33.3286014 Z" id="Shape"></path>
                    <path d="M9.99301072,5.10719413 C10.4826659,5.34704667 10.8857132,5.73309502 11.14643,6.2119668 C11.5320782,6.96775257 12.0629613,8.07182022 12.5882042,9.32887808 C13.1708955,8.92245082 13.7866615,8.56563202 14.429022,8.26217671 C13.5717127,7.14400858 12.8779691,6.11396846 12.4197035,5.39766404 C12.1510404,4.96601489 12.0295779,4.45889064 12.0735367,3.95236476 C12.1087467,3.35093443 11.7579573,2.79357242 11.2004715,2.56516976 C10.6429857,2.33676711 10.0019716,2.48778596 9.60507851,2.94103425 C9.20818536,3.39428255 9.14310072,4.04962187 9.44309197,4.57208089 C9.57217651,4.79881233 9.76284159,4.98434412 9.99301072,5.10719413 L9.99301072,5.10719413 Z" id="Shape"></path>
                    <path d="M28.5457183,6.15274478 C28.7865137,5.70374386 29.1665197,5.34501419 29.6286352,5.13045993 C30.1668738,4.86009677 30.4739479,4.27769756 30.3929569,3.68084122 C30.3119659,3.08398488 29.8607952,2.60447645 29.269972,2.48732247 C28.6791489,2.37016848 28.0791461,2.6412403 27.7765371,3.16203281 C27.6433232,3.38677239 27.5765834,3.64468602 27.5840655,3.90583317 C27.6210707,4.44982063 27.4880256,4.99185599 27.2033525,5.45688606 C26.7408568,6.16966536 26.0513432,7.18419495 25.2292852,8.26288173 C25.8719784,8.56546966 26.4882069,8.92133992 27.071513,9.326763 C27.6080363,8.02599365 28.1530199,6.90923558 28.5457183,6.15274478 Z" id="Shape"></path>
                    <circle id="Oval" cx="17.7130239" cy="15.5105288" r="2.11507212"></circle>
                    <path d="M7.18419495,20.8038493 C7.15528897,20.4513373 7.13907341,20.0988253 7.13907341,19.7406731 C7.13907341,19.3825209 7.15458394,19.0300088 7.18348993,18.6789069 C5.78895238,18.8615081 4.55163519,18.947521 3.70278625,18.9855923 C3.19464847,19.0019055 2.69485042,18.8535241 2.27793267,18.5625779 C1.69128361,18.1592859 0.896035588,18.2565425 0.423865782,18.789325 C-0.048304017,19.3221076 -0.049273982,20.12328 0.421604375,20.6572043 C0.880172455,21.1751928 1.64128883,21.2960378 2.2377463,20.9455592 C2.69072209,20.6424099 3.2262658,20.4865482 3.77117358,20.4992789 C4.61790745,20.5401703 5.83900909,20.6290034 7.18419495,20.8038493 L7.18419495,20.8038493 Z" id="Shape"></path>
                    <circle id="Oval" cx="25.4682884" cy="17.625601" r="1"></circle>
                    <path d="M39.2359978,18.8276669 C38.7771466,18.3101947 38.0164226,18.189412 37.4198559,18.5393121 C36.967738,18.8442962 36.4315969,19.0003318 35.8864286,18.9855923 C35.0403997,18.9411758 33.8185931,18.8523428 32.4734072,18.6774968 C32.5039582,19.0290688 32.5192338,19.3834609 32.5192338,19.7406731 C32.5192338,20.0974152 32.5030182,20.4513373 32.4741122,20.8031443 C33.9610079,20.6092627 35.254022,20.5274799 35.9555209,20.4957538 C36.4635152,20.4805487 36.9629724,20.6288289 37.3803745,20.9187682 C37.9663682,21.3159658 38.7560332,21.2170935 39.2260079,20.6876803 C39.6959826,20.1582671 39.7005585,19.3624496 39.2367028,18.8276669 L39.2359978,18.8276669 Z" id="Shape"></path>
                    <path d="M36.4074413,27.6820638 C36.1778751,27.5461055 35.913126,27.4813291 35.6467204,27.4959375 C35.1118771,27.534207 34.5786232,27.4024358 34.1231635,27.1194547 C33.0064054,26.39751 31.9495743,25.6473645 30.9829864,24.8887586 C30.515158,24.5154456 30.3323119,23.8884638 30.5261308,23.3221952 C31.3016361,20.9979661 31.3016361,18.4847901 30.5261308,16.160561 C30.3310935,15.5936763 30.5140701,14.9654 30.9829864,14.5918825 C32.2414543,13.6048489 33.4082691,12.818042 34.1654649,12.3308704 C34.6007662,12.0616382 35.1114846,11.9404508 35.6213395,11.9854087 C35.9924606,12.0026215 36.3559794,11.8763997 36.6365742,11.6328966 C37.05744,11.25893 37.2155075,10.6704455 37.0386602,10.1359324 C36.8618128,9.60141936 36.38395,9.22333689 35.823091,9.17418064 C35.262232,9.12502446 34.725886,9.41421715 34.4587549,9.90981788 C34.2207091,10.3945075 33.8388192,10.793879 33.3652626,11.0533669 C32.6369728,11.4227995 30.8737077,12.199736 29.886674,12.6298006 C29.3233789,12.8714528 28.6685294,12.7225457 28.2651187,12.2610731 C26.6490039,10.4340743 24.4825595,9.18221341 22.0926333,8.69435644 C21.4881132,8.57881992 21.0283697,8.08454576 20.9568395,7.47325481 C20.8327553,6.37835248 20.619133,4.4197957 20.5817668,3.60408288 C20.567652,3.10083077 20.7159777,2.60641147 21.0047812,2.19403481 C21.3372376,1.69150421 21.3136365,1.03325274 20.9460443,0.555821846 C20.5784522,0.0783909531 19.9481078,-0.11270582 19.3772847,0.080232779 C18.8064617,0.273171371 18.4213134,0.807505367 18.418753,1.41004808 C18.4172401,1.67236634 18.4906154,1.92966922 18.6302602,2.15173337 C18.9347655,2.60077448 19.0899414,3.13439211 19.0737203,3.67670036 C19.0321239,4.48606796 18.8213217,6.40232329 18.6993526,7.47254978 C18.6276788,8.0822435 18.1697743,8.57550307 17.567084,8.69224137 C15.1764714,9.1807294 13.0094045,10.433016 11.3924834,12.260368 C10.9905776,12.7217446 10.3369775,12.8712609 9.77445327,12.6305056 C8.76767894,12.1933907 6.96986764,11.4030588 6.24228284,11.0237559 C5.79291283,10.7829973 5.43372046,10.4030251 5.21858793,9.94083894 C5.00390747,9.52408266 4.59753047,9.23999006 4.13239405,9.18149562 C3.66725764,9.12300119 3.20319305,9.29762923 2.89200861,9.64825397 C2.61359738,9.96659939 2.49277658,10.3931 2.56285704,10.8101676 C2.6329375,11.2272351 2.88651826,11.5908245 3.25368594,11.8006924 C3.48278228,11.9345116 3.74589855,11.9986982 4.01088175,11.9854087 C4.54586268,11.9455175 5.07961248,12.0774113 5.5344387,12.3618915 C6.65401687,13.0859512 7.71084791,13.8360968 8.67391074,14.5918825 C9.14268969,14.9658109 9.32536868,15.5943171 9.1300613,16.161266 C8.3550264,18.4848479 8.3550264,20.9972033 9.1300613,23.3207851 C9.32476567,23.8874628 9.14182011,24.51535 8.67320572,24.8887586 C7.41262274,25.8757923 6.24651298,26.6640091 5.49002219,27.1504757 C5.05488931,27.4182304 4.54533168,27.5393183 4.03626262,27.4959375 C3.66480652,27.47788 3.30076225,27.6041965 3.02032298,27.8484495 C2.47977518,28.3278149 2.3890093,29.1381967 2.8101118,29.7252706 C3.2312143,30.3123445 4.0279262,30.486147 4.65527373,30.1277922 C4.88550674,29.9978468 5.07384638,29.8048598 5.19814224,29.5715283 C5.4363738,29.0867355 5.81852108,28.6873523 6.29233954,28.4279793 C7.02062937,28.0585467 8.78389449,27.2816102 9.77092815,26.8515455 C9.94651756,26.7754518 10.1358237,26.736103 10.3271921,26.7359216 C10.7357168,26.7371529 11.1241022,26.9135051 11.3938935,27.2202731 C13.0101227,29.0476234 15.1768313,30.2997414 17.567084,30.7876947 C18.1705511,30.9039695 18.6292031,31.3977049 18.7007626,32.0080913 C18.8248469,33.0987635 19.0377641,35.0516801 19.0758354,35.8730331 C19.0897153,36.3780057 18.9414666,36.8741448 18.652821,37.2887214 C18.3202646,37.7913956 18.3439803,38.4498639 18.7118371,38.9273118 C19.0796939,39.4047597 19.7103449,39.5956056 20.2812046,39.4022295 C20.8520644,39.2088534 21.2368942,38.674018 21.2388492,38.0712981 C21.2406704,37.8084956 21.1672814,37.5506558 21.0273419,37.3282027 C20.72283,36.8805188 20.5678423,36.3479337 20.5845869,35.8067609 C20.6381687,34.7703755 20.7573177,33.1798413 21.0202917,31.4807334 C21.0623532,31.1712871 21.3015008,30.9255601 21.6096918,30.8751177 C24.1858409,30.4692525 26.5396189,29.177168 28.2651187,27.2216831 C28.6675754,26.7587071 29.3231873,26.6090566 29.886674,26.8515455 C30.8969735,27.2900705 32.6983099,28.0825175 33.4181394,28.4582953 C33.8665651,28.6990685 34.224785,29.0788113 34.4390142,29.5405072 C34.6533638,29.958666 35.0605318,30.2438591 35.5267668,30.302403 C35.9930018,30.3609469 36.4580394,30.1852743 36.7691187,29.8330922 C37.0475299,29.5147468 37.1683507,29.0882461 37.0982702,28.6711786 C37.0281898,28.254111 36.7746091,27.8905217 36.4074413,27.6806538 L36.4074413,27.6820638 Z M12.0735367,23.2657933 C10.9054146,23.2657933 9.95846454,22.3188432 9.95846454,21.1507212 C9.95846454,19.9825991 10.9054146,19.035649 12.0735367,19.035649 C13.2416587,19.035649 14.1886088,19.9825991 14.1886088,21.1507212 C14.1886088,22.3188432 13.2416587,23.2657933 12.0735367,23.2657933 Z M14.1886088,15.5105288 C14.1886088,13.5636588 15.7668589,11.9854087 17.713729,11.9854087 C19.6605991,11.9854087 21.2388492,13.5636588 21.2388492,15.5105288 C21.2388492,17.4573989 19.6605991,19.035649 17.713729,19.035649 C15.7678251,19.0333182 14.1909397,17.4564327 14.1886088,15.5105288 Z M20.5338251,28.9059856 C18.197581,28.9059856 16.3036809,27.0120855 16.3036809,24.6758413 C16.3036809,22.3395972 18.197581,20.4456971 20.5338251,20.4456971 C22.8700693,20.4456971 24.7639693,22.3395972 24.7639693,24.6758413 C24.7616376,27.011119 22.8691028,28.9036538 20.5338251,28.9059856 Z M25.4689934,19.7406731 C24.3008713,19.7406731 23.3539213,18.793723 23.3539213,17.625601 C23.3539213,16.4574789 24.3008713,15.5105288 25.4689934,15.5105288 C26.6371154,15.5105288 27.5840655,16.4574789 27.5840655,17.625601 C27.5840655,18.793723 26.6371154,19.7406731 25.4689934,19.7406731 Z" id="Shape"></path>
                    <path d="M20.5338251,21.8557452 C18.976329,21.8557452 17.713729,23.1183452 17.713729,24.6758413 C17.713729,26.2333374 18.976329,27.4959375 20.5338251,27.4959375 C22.0913212,27.4959375 23.3539213,26.2333374 23.3539213,24.6758413 C23.3539213,23.1183452 22.0913212,21.8557452 20.5338251,21.8557452 Z" id="Shape"></path>
                </g>
            </g>
        </g>
    </g>
</svg>