<?xml version="1.0" encoding="UTF-8"?>
<svg width="48px" height="48px" viewBox="0 0 48 48" version="1.1" xmlns="http://www.w3.org/2000/svg" xmlns:xlink="http://www.w3.org/1999/xlink">
    <title>school</title>
    <defs>
        <path d="M24.3358994,20.8905996 C24.9486043,19.9715422 26.190343,19.7231945 27.1094004,20.3358994 C28.0284578,20.9486043 28.2768055,22.190343 27.6641006,23.1094004 L27.6641006,23.1094004 L21.7370342,32 L30,32 C31.5973908,32 32.5501736,33.7802909 31.6641006,35.1094004 L31.6641006,35.1094004 L23.6641006,47.1094004 C23.0513957,48.0284578 21.809657,48.2768055 20.8905996,47.6641006 C19.9715422,47.0513957 19.7231945,45.809657 20.3358994,44.8905996 L20.3358994,44.8905996 L26.2629658,36 L18,36 C16.4026092,36 15.4498264,34.2197091 16.3358994,32.8905996 L16.3358994,32.8905996 Z M17.9884166,0.00135586188 C25.6689701,0.00135586188 32.4393879,4.86337371 34.9590371,12.0000006 L34.9590371,12.0000006 L35.99799,12.000001 C42.1630272,11.9938051 47.3297177,16.6601826 47.9492963,22.7940105 C48.5688748,28.9278384 44.4397327,34.5331888 38.39799,35.760001 C37.3155113,35.9798048 36.2598028,35.2804687 36.039999,34.19799 C35.8201952,33.1155113 36.5195313,32.0598028 37.60201,31.839999 C41.6298384,31.0221242 44.3825999,27.2852239 43.9695475,23.1960053 C43.5564951,19.1067867 40.1120348,15.9958684 36,16 L36,16 L33.48,16 C32.5680686,16 31.7716122,15.3831233 31.5435521,14.5001695 C29.9471312,8.31949268 24.3719364,4.00135586 17.9884166,4.00135586 C11.6048968,4.00135586 6.02970214,8.31949292 4.43328136,14.5001698 C2.83686057,20.6808466 5.62351319,27.1587837 11.2085521,30.2501695 C12.1749568,30.785086 12.5247471,32.0021474 11.9898305,32.9685521 C11.454914,33.9349568 10.2378526,34.2847471 9.2714479,33.7498305 C2.0906836,29.7751917 -1.49215548,21.4464154 0.560385527,13.4998309 C2.61292653,5.55324637 9.78103395,0.00135586188 17.9884166,0.00135586188 Z" id="path-1"></path>
    </defs>
    <g id="v2" stroke="none" stroke-width="1" fill="none" fill-rule="evenodd">
        <g id="LANDING-PAGE-Copy-5" transform="translate(-717.000000, -697.000000)">
            <g id="school" transform="translate(717.000000, 697.000000)">
                <mask id="mask-2" fill="white">
                    <use xlink:href="#path-1"></use>
                </mask>
                <use id="Combined-Shape" fill="#000000" fill-rule="nonzero" xlink:href="#path-1"></use>
                <g id="Group" mask="url(#mask-2)" fill="#000000">
                    <g id="COLOR/-black">
                        <rect id="Rectangle" x="0" y="0" width="48" height="48"></rect>
                    </g>
                </g>
            </g>
        </g>
    </g>
</svg>