<?xml version="1.0" encoding="UTF-8"?>
<svg width="40px" height="32px" viewBox="0 0 40 32" version="1.1" xmlns="http://www.w3.org/2000/svg" xmlns:xlink="http://www.w3.org/1999/xlink">
    <title>school</title>
    <defs>
        <path d="M3.9999999,22 L3.9999999,39 C3.9999999,39.5525001 4.4474999,40 4.9999999,40 L9.9999999,40 L9.9999999,20 L5.9999999,20 C4.8956249,20 3.9999999,20.895625 3.9999999,22 Z M26.5,19 L25,19 L25,16.5 C25,16.22375 24.77625,16 24.5,16 L23.5,16 C23.22375,16 23,16.22375 23,16.5 L23,20.5 C23,20.77625 23.22375,21 23.5,21 L26.5,21 C26.77625,21 27,20.77625 27,20.5 L27,19.5 C27,19.22375 26.77625,19 26.5,19 Z M35.1093751,15.0025 L25.109375,8.33562492 C24.4374861,7.88811773 23.5625139,7.88811773 22.890625,8.33562492 L12.8906249,15.0025 C12.3343383,15.3733723 11.9999999,15.9976686 11.9999999,16.66625 L11.9999999,39.9999945 L19.9999999,39.9999945 L19.9999999,30.9999945 C19.9999999,30.4475 20.4475,29.9999945 20.9999999,29.9999945 L26.9999999,29.9999945 C27.5525,29.9999945 27.9999999,30.4475 27.9999999,30.9999945 L27.9999999,39.9999945 L35.9999999,39.9999945 L35.9999999,16.666875 C35.9999999,15.998125 35.6656251,15.373125 35.1093751,15.0025 Z M24,24 C21.23875,24 19,21.76125 19,19 C19,16.23875 21.23875,14 24,14 C26.76125,14 29,16.23875 29,19 C29,21.76125 26.76125,24 24,24 Z M42.0000001,20 L38.0000001,20 L38.0000001,40 L43.0000001,40 C43.5525001,40 44.0000001,39.5525001 44.0000001,39 L44.0000001,22 C44.0000001,20.895625 43.1043751,20 42.0000001,20 Z" id="path-1"></path>
    </defs>
    <g id="v2" stroke="none" stroke-width="1" fill="none" fill-rule="evenodd">
        <g id="LANDING-PAGE-Copy-4" transform="translate(-721.000000, -705.000000)">
            <g id="school" transform="translate(717.000000, 697.000000)">
                <mask id="mask-2" fill="white">
                    <use xlink:href="#path-1"></use>
                </mask>
                <g fill-rule="nonzero"></g>
                <g id="🎨-color" mask="url(#mask-2)" fill="#FFFFFF">
                    <rect id="🎨-Color" x="0" y="0" width="48" height="48"></rect>
                </g>
            </g>
        </g>
    </g>
</svg>