<?xml version="1.0" encoding="UTF-8"?>
<svg width="27px" height="31px" viewBox="0 0 27 31" version="1.1" xmlns="http://www.w3.org/2000/svg" xmlns:xlink="http://www.w3.org/1999/xlink">
    <title>snowflake</title>
    <defs>
        <path d="M29.8217774,22.5813802 L27.8963217,21.4705404 L29.3774415,21.0717774 C29.8445639,20.9464518 30.123698,20.4622396 29.9983725,19.9951172 L29.7705079,19.1463216 C29.6451824,18.6791992 29.1609701,18.4000651 28.6938477,18.5253906 L24.6606446,19.6077474 L21.0205078,17.5 L24.654948,15.3979492 L28.6881511,16.480306 C29.1552735,16.6056315 29.6394857,16.3264974 29.7648113,15.859375 L29.9926758,15.0105794 C30.1180014,14.543457 29.8388672,14.0592448 29.3717449,13.9339193 L27.8906251,13.5351562 L29.8160808,12.4243164 C30.2376303,12.179362 30.3800456,11.6438802 30.1407878,11.2223307 L29.2578126,9.69563798 C29.0128581,9.2740885 28.4773764,9.13167314 28.0558269,9.37093095 L26.1303711,10.4817708 L26.5291342,9.000651 C26.6544597,8.5335286 26.3753256,8.04931636 25.9082032,7.92399084 L25.0594076,7.69612625 C24.5922852,7.57080073 24.1080729,7.84993485 23.9827474,8.31705725 L22.9003907,12.3502604 L19.3229167,14.4124349 L19.3229167,9.99755856 L22.3819987,6.93847651 C22.7351888,6.5852864 22.7351888,6.00423171 22.3819987,5.65104161 L21.7382813,5.00732416 C21.3850912,4.65413405 20.8040365,4.65413405 20.4508464,5.00732416 L19.3229167,6.12955723 L19.3229167,3.82812493 C19.3229167,3.32682285 18.9127604,2.91666659 18.4114583,2.91666659 L16.5885417,2.91666659 C16.0872396,2.91666659 15.6770833,3.32682285 15.6770833,3.82812493 L15.6770833,6.12955723 L14.5548502,5.00732416 C14.2016601,4.65413405 13.6206054,4.65413405 13.2674153,5.00732416 L12.6180013,5.65104161 C12.2591146,6.00423171 12.2591146,6.5852864 12.6180013,6.93847651 L15.6770833,9.99755856 L15.6770833,14.4124349 L12.0996093,12.3502604 L11.0172526,8.31705725 C10.8919271,7.84993485 10.4077148,7.57080073 9.94059241,7.69612625 L9.09179683,7.92399084 C8.62467443,8.04931636 8.34554032,8.5335286 8.47086584,9.000651 L8.86962886,10.4817708 L6.94417312,9.37093095 C6.52262364,9.12597652 5.98714187,9.2740885 5.74218744,9.69563798 L4.85921218,11.2166341 C4.61425775,11.6381836 4.76236973,12.1736653 5.18391921,12.4186198 L7.10937495,13.5294596 L5.62825515,13.9282226 C5.15543614,14.0535482 4.87630202,14.5377604 5.00162754,15.0105794 L5.22949213,15.859375 C5.35481765,16.3264974 5.83902989,16.6056315 6.30615229,16.480306 L10.3393554,15.3979492 L13.9737956,17.5 L10.3393554,19.6020508 L6.30615229,18.519694 C5.83902989,18.3943685 5.35481765,18.6735026 5.22949213,19.140625 L5.00162754,19.9894206 C4.87630202,20.456543 5.15543614,20.9407552 5.62255853,21.0660807 L7.10367833,21.4648438 L5.17822259,22.5813802 C4.75667311,22.8263347 4.61425775,23.3618164 4.85351556,23.7833659 L5.73649083,25.3100586 C5.98144525,25.7316081 6.51692703,25.8740235 6.93847651,25.6347657 L8.86393225,24.5239258 L8.46516923,26.0050456 C8.3398437,26.472168 8.61897782,26.9563803 9.08610022,27.0817058 L9.9348958,27.3095704 C10.4020182,27.4348959 10.8862304,27.1557618 11.011556,26.6886394 L12.0939127,22.6554362 L15.6713867,20.5932617 L15.6713867,25.0081381 L12.6123047,28.0672201 C12.2534179,28.4204102 12.2534179,29.0014649 12.6123047,29.354655 L13.2560221,29.9983725 C13.6092122,30.3515626 14.1902669,30.3515626 14.543457,29.9983725 L15.6656901,28.8761394 L15.6656901,31.1718751 C15.6656901,31.6731772 16.0758463,32.0833334 16.5771484,32.0833334 L18.4000651,32.0833334 C18.9013672,32.0833334 19.3115234,31.6731772 19.3115234,31.1718751 L19.3115234,28.8704428 L20.4337565,29.9926758 C20.7869466,30.3458659 21.3680013,30.3458659 21.7211914,29.9926758 L22.3649089,29.3489584 C22.718099,28.9957683 22.718099,28.4147136 22.3649089,28.0615235 L19.3229167,25.0024414 L19.3229167,20.5875651 L22.9003907,22.6497396 L23.9827474,26.6829428 C24.1080729,27.1500652 24.5922852,27.4291993 25.0594076,27.3038737 L25.9082032,27.0760092 C26.3753256,26.9506836 26.6544597,26.4664714 26.5291342,25.999349 L26.1303711,24.5182292 L28.0558269,25.6290691 C28.4773764,25.8740235 29.0128581,25.7259115 29.2578126,25.304362 L30.1407878,23.7776693 C30.3857423,23.3618164 30.2433269,22.820638 29.8217774,22.5813802 Z" id="path-1"></path>
    </defs>
    <g id="v2" stroke="none" stroke-width="1" fill="none" fill-rule="evenodd">
        <g id="LANDING-PAGE-Copy-3" transform="translate(-728.000000, -705.000000)">
            <g id="snowflake" transform="translate(724.000000, 703.000000)">
                <mask id="mask-2" fill="white">
                    <use xlink:href="#path-1"></use>
                </mask>
                <g></g>
                <g id="🎨-color" mask="url(#mask-2)" fill="#FFFFFF">
                    <rect id="🎨-Color" x="0" y="0" width="35" height="35"></rect>
                </g>
            </g>
        </g>
    </g>
</svg>